<svg width="12" height="11" viewBox="0 0 12 11" fill="none" xmlns="http://www.w3.org/2000/svg">
<g clip-path="url(#clip0_10_1288)">
<path d="M11.3762 9.01411C11.7287 9.62511 11.2862 10.3889 10.5822 10.3889H1.4177C0.712309 10.3889 0.271889 9.62392 0.623698 9.01411L5.206 1.06913C5.55867 0.457848 6.44197 0.458956 6.79401 1.06913L11.3762 9.01411ZM6.00001 7.3715C5.51484 7.3715 5.12153 7.76481 5.12153 8.24997C5.12153 8.73514 5.51484 9.12844 6.00001 9.12844C6.48517 9.12844 6.87848 8.73514 6.87848 8.24997C6.87848 7.76481 6.48517 7.3715 6.00001 7.3715ZM5.16597 4.21385L5.30764 6.81107C5.31426 6.93261 5.41475 7.02775 5.53646 7.02775H6.46355C6.58526 7.02775 6.68575 6.93261 6.69238 6.81107L6.83404 4.21385C6.8412 4.08258 6.73668 3.9722 6.60522 3.9722H5.39478C5.26331 3.9722 5.15881 4.08258 5.16597 4.21385Z" fill="#A6E6C1"/>
</g>
<defs>
<clipPath id="clip0_10_1288">
<rect width="11" height="9.77778" fill="white" transform="translate(0.5 0.611084)"/>
</clipPath>
</defs>
</svg>
