<svg width="10" height="11" viewBox="0 0 10 11" fill="none" xmlns="http://www.w3.org/2000/svg">
<path d="M5 0.65625C2.32506 0.65625 0.15625 2.82584 0.15625 5.5C0.15625 8.17572 2.32506 10.3438 5 10.3438C7.67494 10.3438 9.84375 8.17572 9.84375 5.5C9.84375 2.82584 7.67494 0.65625 5 0.65625ZM5 2.80469C5.45305 2.80469 5.82031 3.17195 5.82031 3.625C5.82031 4.07805 5.45305 4.44531 5 4.44531C4.54695 4.44531 4.17969 4.07805 4.17969 3.625C4.17969 3.17195 4.54695 2.80469 5 2.80469ZM6.09375 7.76562C6.09375 7.89506 5.98881 8 5.85938 8H4.14062C4.01119 8 3.90625 7.89506 3.90625 7.76562V7.29688C3.90625 7.16744 4.01119 7.0625 4.14062 7.0625H4.375V5.8125H4.14062C4.01119 5.8125 3.90625 5.70756 3.90625 5.57812V5.10938C3.90625 4.97994 4.01119 4.875 4.14062 4.875H5.39062C5.52006 4.875 5.625 4.97994 5.625 5.10938V7.0625H5.85938C5.98881 7.0625 6.09375 7.16744 6.09375 7.29688V7.76562Z" fill="#A6E6C1"/>
</svg>
