<svg width="18" height="14" viewBox="0 0 18 14" fill="none" xmlns="http://www.w3.org/2000/svg">
<g clip-path="url(#clip0_10_1273)">
<path d="M2.875 6.125C3.84023 6.125 4.625 5.34023 4.625 4.375C4.625 3.40977 3.84023 2.625 2.875 2.625C1.90977 2.625 1.125 3.40977 1.125 4.375C1.125 5.34023 1.90977 6.125 2.875 6.125ZM15.125 6.125C16.0902 6.125 16.875 5.34023 16.875 4.375C16.875 3.40977 16.0902 2.625 15.125 2.625C14.1598 2.625 13.375 3.40977 13.375 4.375C13.375 5.34023 14.1598 6.125 15.125 6.125ZM16 7H14.25C13.7688 7 13.334 7.19414 13.0168 7.50859C14.1187 8.11289 14.9008 9.20391 15.0703 10.5H16.875C17.359 10.5 17.75 10.109 17.75 9.625V8.75C17.75 7.78477 16.9652 7 16 7ZM9 7C10.6926 7 12.0625 5.63008 12.0625 3.9375C12.0625 2.24492 10.6926 0.875 9 0.875C7.30742 0.875 5.9375 2.24492 5.9375 3.9375C5.9375 5.63008 7.30742 7 9 7ZM11.1 7.875H10.873C10.3043 8.14844 9.67266 8.3125 9 8.3125C8.32734 8.3125 7.69844 8.14844 7.12695 7.875H6.9C5.16094 7.875 3.75 9.28594 3.75 11.025V11.8125C3.75 12.5371 4.33789 13.125 5.0625 13.125H12.9375C13.6621 13.125 14.25 12.5371 14.25 11.8125V11.025C14.25 9.28594 12.8391 7.875 11.1 7.875ZM4.9832 7.50859C4.66602 7.19414 4.23125 7 3.75 7H2C1.03477 7 0.25 7.78477 0.25 8.75V9.625C0.25 10.109 0.641016 10.5 1.125 10.5H2.92695C3.09922 9.20391 3.88125 8.11289 4.9832 7.50859Z" fill="#0A6E2A"/>
</g>
<defs>
<clipPath id="clip0_10_1273">
<rect width="17.5" height="14" fill="white" transform="translate(0.25)"/>
</clipPath>
</defs>
</svg>
