<svg width="11" height="11" viewBox="0 0 11 11" fill="none" xmlns="http://www.w3.org/2000/svg">
<path d="M7.74062 3.10313C7.13004 2.53141 6.33766 2.21801 5.49703 2.21875C3.98418 2.22008 2.67812 3.25738 2.31752 4.69629C2.29127 4.80104 2.19795 4.875 2.08996 4.875H0.970762C0.824316 4.875 0.713066 4.74205 0.740156 4.59812C1.16275 2.35398 3.13307 0.65625 5.5 0.65625C6.79781 0.65625 7.97639 1.16672 8.846 1.99775L9.54355 1.3002C9.83885 1.0049 10.3438 1.21404 10.3438 1.63166V4.25C10.3438 4.50889 10.1339 4.71875 9.875 4.71875H7.25666C6.83904 4.71875 6.6299 4.21385 6.9252 3.91854L7.74062 3.10313ZM1.125 6.28125H3.74334C4.16096 6.28125 4.3701 6.78615 4.0748 7.08146L3.25938 7.89689C3.86996 8.46863 4.6624 8.78203 5.50305 8.78127C7.01512 8.7799 8.3217 7.7433 8.68248 6.30375C8.70873 6.199 8.80205 6.12504 8.91004 6.12504H10.0293C10.1757 6.12504 10.287 6.25799 10.2599 6.40191C9.83725 8.64602 7.86693 10.3438 5.5 10.3438C4.20219 10.3438 3.02361 9.83328 2.154 9.00225L1.45645 9.6998C1.16115 9.9951 0.65625 9.78596 0.65625 9.36834V6.75C0.65625 6.49111 0.866113 6.28125 1.125 6.28125Z" fill="#A6E6C1"/>
</svg>
