<svg width="8" height="9" viewBox="0 0 8 9" fill="none" xmlns="http://www.w3.org/2000/svg">
<g clip-path="url(#clip0_10_1445)">
<path d="M4.50001 0.86027V1.12057C4.50001 1.28938 4.61377 1.43555 4.77635 1.48097C5.98757 1.8193 6.87501 2.92999 6.87501 4.25002C6.87501 5.83891 5.58915 7.12502 4.00001 7.12502C2.41112 7.12502 1.12501 5.83916 1.12501 4.25002C1.12501 2.93018 2.01229 1.81933 3.22363 1.48097C3.38624 1.43555 3.50001 1.28935 3.50001 1.12052V0.860395C3.50001 0.614942 3.26823 0.436129 3.03054 0.497364C1.35318 0.929426 0.115539 2.45636 0.125054 4.27083C0.136304 6.41227 1.86688 8.12952 4.00835 8.125C6.14462 8.1205 7.87501 6.38733 7.87501 4.25002C7.87501 2.44325 6.63844 0.925348 4.96546 0.496332C4.72935 0.435786 4.50001 0.61652 4.50001 0.86027Z" fill="#D9D9D9"/>
</g>
<defs>
<clipPath id="clip0_10_1445">
<rect width="8" height="8" fill="white" transform="translate(0 0.25)"/>
</clipPath>
</defs>
</svg>
